<svg width="48" height="48" viewBox="0 0 48 48" fill="none" xmlns="http://www.w3.org/2000/svg">
<rect width="48" height="48" fill="white"/>
<path d="M42.56 41.6345C43.3648 42.1328 43.481 42.4473 43.4974 42.5C43.481 42.5527 43.3648 42.8672 42.56 43.3655C41.6782 43.9116 40.3023 44.4579 38.4692 44.938C34.8253 45.8924 29.709 46.5 24 46.5C18.291 46.5 13.1747 45.8924 9.5308 44.938C7.69767 44.4579 6.32183 43.9116 5.43997 43.3655C4.63514 42.8672 4.51902 42.5527 4.5026 42.5C4.51902 42.4473 4.63514 42.1328 5.43997 41.6345C6.32183 41.0884 7.69767 40.5421 9.5308 40.062C13.1747 39.1076 18.291 38.5 24 38.5C29.709 38.5 34.8253 39.1076 38.4692 40.062C40.3023 40.5421 41.6782 41.0884 42.56 41.6345Z" fill="white" stroke="#152C5B" stroke-width="3"/>
<path d="M36.5 12.7407C36.5 16.0066 34.997 23.3801 32.4968 29.9775C31.2523 33.2616 29.8006 36.2433 28.2393 38.3752C26.6207 40.5853 25.1705 41.5 24 41.5C22.8295 41.5 21.3793 40.5853 19.7607 38.3752C18.1994 36.2433 16.7477 33.2616 15.5032 29.9775C13.003 23.3801 11.5 16.0066 11.5 12.7407C11.5 6.66257 16.9603 1.5 24 1.5C31.0397 1.5 36.5 6.66257 36.5 12.7407Z" fill="white" stroke="#152C5B" stroke-width="3"/>
<circle cx="24" cy="13" r="4.5" fill="white" stroke="#FF498D" stroke-width="3"/>
</svg>
