<svg width="48" height="48" viewBox="0 0 48 48" fill="none" xmlns="http://www.w3.org/2000/svg">
<rect width="48" height="48" fill="white"/>
<mask id="path-1-inside-1" fill="white">
<path fill-rule="evenodd" clip-rule="evenodd" d="M17.5012 6C16.5514 6 15.7326 6.66798 15.5419 7.59841L14.6397 12H8C3.58172 12 0 15.5817 0 20V34C0 38.4183 3.58172 42 8 42H40C44.4183 42 48 38.4183 48 34V20C48 15.5817 44.4183 12 40 12H32.8137L31.5764 7.47275C31.3387 6.60313 30.5487 6 29.6471 6H17.5012Z"/>
</mask>
<path d="M15.5419 7.59841L18.4808 8.2008V8.20079L15.5419 7.59841ZM14.6397 12V15H17.0872L17.5786 12.6024L14.6397 12ZM32.8137 12L29.9198 12.7909L30.5235 15H32.8137V12ZM31.5764 7.47275L28.6825 8.26362V8.26362L31.5764 7.47275ZM18.4808 8.20079C18.3855 8.66601 17.9761 9 17.5012 9V3C15.1268 3 13.0798 4.66995 12.603 6.99603L18.4808 8.20079ZM17.5786 12.6024L18.4808 8.2008L12.603 6.99603L11.7008 11.3976L17.5786 12.6024ZM8 15H14.6397V9H8V15ZM3 20C3 17.2386 5.23858 15 8 15V9C1.92487 9 -3 13.9249 -3 20H3ZM3 34V20H-3V34H3ZM8 39C5.23858 39 3 36.7614 3 34H-3C-3 40.0751 1.92487 45 8 45V39ZM40 39H8V45H40V39ZM45 34C45 36.7614 42.7614 39 40 39V45C46.0751 45 51 40.0751 51 34H45ZM45 20V34H51V20H45ZM40 15C42.7614 15 45 17.2386 45 20H51C51 13.9249 46.0751 9 40 9V15ZM32.8137 15H40V9H32.8137V15ZM28.6825 8.26362L29.9198 12.7909L35.7075 11.2091L34.4703 6.68188L28.6825 8.26362ZM29.6471 9C29.1964 9 28.8013 8.69844 28.6825 8.26362L34.4703 6.68188C33.8761 4.50782 31.9009 3 29.6471 3V9ZM17.5012 9H29.6471V3H17.5012V9Z" fill="#152C5B" mask="url(#path-1-inside-1)"/>
<circle cx="24" cy="27" r="6.5" fill="white" stroke="#FF498D" stroke-width="3"/>
<path d="M40.5 18C40.1502 18 39.8171 18 39.5 18C33.2893 18 33.2072 18 34 18" stroke="#152C5B" stroke-width="3"/>
</svg>
